<svg width="53" height="53" viewBox="0 0 53 53" fill="none" xmlns="http://www.w3.org/2000/svg">
<path d="M29.125 13.375H23.875V23.875H13.375V29.125H23.875V39.625H29.125V29.125H39.625V23.875H29.125V13.375ZM26.5 0.25C12.01 0.25 0.25 12.01 0.25 26.5C0.25 40.99 12.01 52.75 26.5 52.75C40.99 52.75 52.75 40.99 52.75 26.5C52.75 12.01 40.99 0.25 26.5 0.25ZM26.5 47.5C14.9237 47.5 5.5 38.0762 5.5 26.5C5.5 14.9237 14.9237 5.5 26.5 5.5C38.0762 5.5 47.5 14.9237 47.5 26.5C47.5 38.0762 38.0762 47.5 26.5 47.5Z" fill="#F1F1F1"/>
</svg>
