<svg width="20" height="19" viewBox="0 0 20 19" fill="none" xmlns="http://www.w3.org/2000/svg">
<path d="M10.9154 4.91732H9.08203V8.58398H5.41536V10.4173H9.08203V14.084H10.9154V10.4173H14.582V8.58398H10.9154V4.91732ZM9.9987 0.333984C4.9387 0.333984 0.832031 4.44065 0.832031 9.50065C0.832031 14.5607 4.9387 18.6673 9.9987 18.6673C15.0587 18.6673 19.1654 14.5607 19.1654 9.50065C19.1654 4.44065 15.0587 0.333984 9.9987 0.333984ZM9.9987 16.834C5.9562 16.834 2.66536 13.5431 2.66536 9.50065C2.66536 5.45815 5.9562 2.16732 9.9987 2.16732C14.0412 2.16732 17.332 5.45815 17.332 9.50065C17.332 13.5431 14.0412 16.834 9.9987 16.834Z" fill="#FFCC00"/>
</svg>
