<svg width="40" height="40" viewBox="0 0 40 40" fill="none" xmlns="http://www.w3.org/2000/svg">
<path d="M27.5762 21.1381C28.8262 21.1381 29.9262 20.4715 30.4928 19.4633L36.4595 8.91049C37.0762 7.83732 36.2762 6.50399 35.0095 6.50399H10.3428L8.77617 3.25195H3.32617V6.50399H6.65951L12.6595 18.8454L10.4095 22.8129C9.19284 24.9918 10.7928 27.6422 13.3262 27.6422H33.3262V24.3902H13.3262L15.1595 21.1381H27.5762ZM11.9262 9.75602H32.1762L27.5762 17.8861H15.8762L11.9262 9.75602ZM13.3262 29.2682C11.4928 29.2682 10.0095 30.7316 10.0095 32.5202C10.0095 34.3089 11.4928 35.7723 13.3262 35.7723C15.1595 35.7723 16.6595 34.3089 16.6595 32.5202C16.6595 30.7316 15.1595 29.2682 13.3262 29.2682ZM29.9928 29.2682C28.1595 29.2682 26.6762 30.7316 26.6762 32.5202C26.6762 34.3089 28.1595 35.7723 29.9928 35.7723C31.8262 35.7723 33.3262 34.3089 33.3262 32.5202C33.3262 30.7316 31.8262 29.2682 29.9928 29.2682Z" fill="white"/>
</svg>
