<svg width="163" height="33" viewBox="0 0 163 33" fill="none" xmlns="http://www.w3.org/2000/svg">
<path d="M163 9.53531L142.437 30.2462L132.971 20.7106L153.533 0L154.419 8.64289L163 9.53531Z" fill="url(#paint0_linear_1089_921)"/>
<path d="M146.863 25.7826L140.196 32.4974L125.715 17.9121L131.758 17.2846L132.382 11.1973L146.863 25.7826Z" fill="#FFCC00"/>
<path d="M9.74635 13.3559H0V7.95703H26.6799V13.3559H16.9032V30.7797H9.74635V13.3559Z" fill="white"/>
<path d="M35.5736 14.2773H28.7812V30.7796H35.5736V14.2773Z" fill="white"/>
<path d="M35.573 7.95703H28.7812V12.6815H35.573V7.95703Z" fill="#FFCC00"/>
<path d="M48.9135 31.2402C39.5636 31.2402 37.4922 26.4243 37.4922 22.743V22.1296C37.4922 18.4488 39.5333 13.8164 48.8832 13.8164H50.6193C60.8524 13.8164 62.1315 18.786 62.1315 21.0254V21.1175H55.1569C55.0029 20.473 54.3959 18.1416 49.7361 18.1416H49.6447C45.6853 18.1416 44.4365 20.1358 44.4365 22.2216V22.4363C44.4365 24.6451 45.7156 26.8535 49.6447 26.8535H49.7361C54.3061 26.8535 55.0352 24.4915 55.1569 23.8166H62.1315V23.8782C62.1315 26.1786 61.0655 31.2402 50.5885 31.2402H48.9135Z" fill="white"/>
<path d="M63.9609 30.7797V7.95703H70.7527V20.8742L77.392 14.2791H84.9145L77.1789 21.7332L85.8567 30.7839H77.8793L70.7527 23.2015V30.7782L63.9609 30.7797Z" fill="white"/>
<path d="M93.8699 19.0312V24.3065H84.0938V19.0312H93.8699Z" fill="white"/>
<path d="M103.676 30.7797H96.5801V7.95703H103.676V30.7797Z" fill="white"/>
<path d="M112.905 30.7802C109.95 30.7802 108.854 28.9401 108.854 26.0868V18.8167H105.656V14.2769H108.854V9.46094H115.555V14.2769H118.783V18.8167H115.555V24.7985C115.555 25.6885 115.768 26.2404 116.925 26.2404H118.783V30.7802H112.905Z" fill="white"/>
<defs>
<linearGradient id="paint0_linear_1089_921" x1="157.518" y1="6.35351" x2="135.2" y2="26.5922" gradientUnits="userSpaceOnUse">
<stop stop-color="#FFCC00"/>
<stop offset="1" stop-color="#E5A400"/>
</linearGradient>
</defs>
</svg>
