<svg width="64" height="17" viewBox="0 0 64 17" fill="none" xmlns="http://www.w3.org/2000/svg">
<path d="M9.17583 3.75H4.82417L1.75 6.82417V11.1758L4.82417 14.25H9.17583L12.25 11.1758V6.82417L9.17583 3.75ZM11.0833 10.6917L8.69167 13.0833H5.30833L2.91667 10.6917V7.30833L5.30833 4.91667H8.69167L11.0833 7.30833V10.6917Z" fill="#F2DC84"/>
<path d="M7 11.9167C7.32217 11.9167 7.58333 11.6555 7.58333 11.3333C7.58333 11.0112 7.32217 10.75 7 10.75C6.67783 10.75 6.41667 11.0112 6.41667 11.3333C6.41667 11.6555 6.67783 11.9167 7 11.9167Z" fill="#F2DC84"/>
<path d="M6.41667 6.08333H7.58333V10.1667H6.41667V6.08333Z" fill="#F2DC84"/>
<path d="M19.1186 14V3.81818H22.7479C23.5367 3.81818 24.1913 3.95407 24.7116 4.22585C25.2353 4.49763 25.6264 4.87382 25.8849 5.3544C26.1435 5.83168 26.2727 6.38352 26.2727 7.00994C26.2727 7.63305 26.1418 8.18158 25.88 8.65554C25.6214 9.12618 25.2304 9.49242 24.7067 9.75426C24.1863 10.0161 23.5317 10.147 22.7429 10.147H19.9936V8.82457H22.6037C23.1009 8.82457 23.5052 8.75331 23.8168 8.6108C24.1316 8.46828 24.362 8.26113 24.5078 7.98935C24.6536 7.71757 24.7266 7.3911 24.7266 7.00994C24.7266 6.62547 24.652 6.29238 24.5028 6.01065C24.357 5.72893 24.1267 5.51349 23.8118 5.36435C23.5002 5.21188 23.0909 5.13565 22.5838 5.13565H20.6548V14H19.1186ZM24.1449 9.40625L26.6605 14H24.9105L22.4446 9.40625H24.1449ZM31.2182 14.1541C30.4658 14.1541 29.8179 13.9934 29.2743 13.6719C28.7341 13.3471 28.3165 12.8913 28.0215 12.3047C27.7298 11.7147 27.584 11.0237 27.584 10.2315C27.584 9.44934 27.7298 8.75994 28.0215 8.16335C28.3165 7.56676 28.7275 7.10109 29.2544 6.76633C29.7847 6.43158 30.4045 6.2642 31.1138 6.2642C31.5447 6.2642 31.9623 6.33546 32.3667 6.47798C32.771 6.6205 33.1339 6.84422 33.4554 7.14915C33.7769 7.45407 34.0305 7.85014 34.2161 8.33736C34.4017 8.82126 34.4945 9.40956 34.4945 10.1023V10.6293H28.4242V9.51562H33.0378C33.0378 9.12453 32.9583 8.77817 32.7992 8.47656C32.6401 8.17164 32.4164 7.93134 32.128 7.75568C31.843 7.58002 31.5082 7.49219 31.1238 7.49219C30.7061 7.49219 30.3416 7.59493 30.03 7.80043C29.7218 8.0026 29.4831 8.26776 29.3141 8.59588C29.1484 8.92069 29.0655 9.27367 29.0655 9.65483V10.5249C29.0655 11.0353 29.155 11.4695 29.334 11.8274C29.5163 12.1854 29.7698 12.4588 30.0946 12.6477C30.4194 12.8333 30.7989 12.9261 31.2331 12.9261C31.5149 12.9261 31.7717 12.8864 32.0037 12.8068C32.2357 12.724 32.4363 12.6013 32.6053 12.4389C32.7743 12.2765 32.9036 12.076 32.9931 11.8374L34.4 12.0909C34.2873 12.5052 34.0852 12.8681 33.7935 13.1797C33.5051 13.4879 33.1422 13.7282 32.7047 13.9006C32.2705 14.0696 31.775 14.1541 31.2182 14.1541ZM36.1438 16.8636V6.36364H37.5955V7.60156H37.7198C37.806 7.44247 37.9303 7.25852 38.0927 7.04972C38.2551 6.84091 38.4805 6.65862 38.7688 6.50284C39.0572 6.34375 39.4383 6.2642 39.9123 6.2642C40.5288 6.2642 41.079 6.41998 41.5629 6.73153C42.0468 7.04309 42.4263 7.49219 42.7013 8.07884C42.9798 8.66548 43.119 9.37145 43.119 10.1967C43.119 11.022 42.9814 11.7296 42.7063 12.3196C42.4312 12.9062 42.0534 13.3587 41.5728 13.6768C41.0922 13.9917 40.5437 14.1491 39.9272 14.1491C39.4632 14.1491 39.0837 14.0713 38.7887 13.9155C38.497 13.7597 38.2683 13.5774 38.1026 13.3686C37.9369 13.1598 37.8093 12.9742 37.7198 12.8118H37.6303V16.8636H36.1438ZM37.6005 10.1818C37.6005 10.7187 37.6784 11.1894 37.8342 11.5938C37.9899 11.9981 38.2153 12.3146 38.5103 12.5433C38.8053 12.7687 39.1665 12.8814 39.5941 12.8814C40.0382 12.8814 40.4094 12.7637 40.7077 12.5284C41.006 12.2898 41.2314 11.9666 41.3839 11.5589C41.5397 11.1513 41.6175 10.6922 41.6175 10.1818C41.6175 9.67803 41.5413 9.22562 41.3888 8.82457C41.2397 8.42353 41.0143 8.10701 40.7127 7.875C40.4144 7.64299 40.0415 7.52699 39.5941 7.52699C39.1632 7.52699 38.7987 7.63802 38.5004 7.86009C38.2054 8.08215 37.9817 8.39205 37.8292 8.78977C37.6767 9.1875 37.6005 9.65151 37.6005 10.1818ZM48.0011 14.1541C47.2852 14.1541 46.6604 13.9901 46.1268 13.6619C45.5932 13.3338 45.1789 12.8748 44.8839 12.2848C44.5889 11.6948 44.4414 11.0054 44.4414 10.2166C44.4414 9.42448 44.5889 8.73177 44.8839 8.13849C45.1789 7.54522 45.5932 7.08452 46.1268 6.75639C46.6604 6.42827 47.2852 6.2642 48.0011 6.2642C48.717 6.2642 49.3417 6.42827 49.8754 6.75639C50.409 7.08452 50.8233 7.54522 51.1183 8.13849C51.4132 8.73177 51.5607 9.42448 51.5607 10.2166C51.5607 11.0054 51.4132 11.6948 51.1183 12.2848C50.8233 12.8748 50.409 13.3338 49.8754 13.6619C49.3417 13.9901 48.717 14.1541 48.0011 14.1541ZM48.006 12.9062C48.4701 12.9062 48.8545 12.7836 49.1594 12.5384C49.4644 12.2931 49.6897 11.9666 49.8356 11.5589C49.9847 11.1513 50.0593 10.7022 50.0593 10.2116C50.0593 9.72443 49.9847 9.27699 49.8356 8.86932C49.6897 8.45833 49.4644 8.12855 49.1594 7.87997C48.8545 7.63139 48.4701 7.5071 48.006 7.5071C47.5387 7.5071 47.1509 7.63139 46.8427 7.87997C46.5378 8.12855 46.3107 8.45833 46.1616 8.86932C46.0157 9.27699 45.9428 9.72443 45.9428 10.2116C45.9428 10.7022 46.0157 11.1513 46.1616 11.5589C46.3107 11.9666 46.5378 12.2931 46.8427 12.5384C47.1509 12.7836 47.5387 12.9062 48.006 12.9062ZM53.22 14V6.36364H54.6568V7.5767H54.7363C54.8755 7.16572 55.1208 6.84257 55.4721 6.60724C55.8268 6.36861 56.2278 6.24929 56.6752 6.24929C56.7681 6.24929 56.8774 6.2526 57.0034 6.25923C57.1326 6.26586 57.2337 6.27415 57.3066 6.28409V7.70597C57.247 7.68939 57.1409 7.67116 56.9885 7.65128C56.836 7.62808 56.6835 7.61648 56.5311 7.61648C56.1797 7.61648 55.8665 7.69105 55.5914 7.8402C55.3197 7.98603 55.1042 8.18987 54.9451 8.4517C54.786 8.71023 54.7065 9.00521 54.7065 9.33665V14H53.22ZM62.6088 6.36364V7.55682H58.4377V6.36364H62.6088ZM59.5563 4.53409H61.0428V11.7578C61.0428 12.0462 61.0859 12.2633 61.1721 12.4091C61.2582 12.5516 61.3693 12.6494 61.5051 12.7024C61.6444 12.7521 61.7952 12.777 61.9576 12.777C62.0769 12.777 62.1813 12.7687 62.2708 12.7521C62.3603 12.7356 62.4299 12.7223 62.4796 12.7124L62.748 13.9403C62.6619 13.9735 62.5392 14.0066 62.3801 14.0398C62.2211 14.0762 62.0222 14.0961 61.7836 14.0994C61.3925 14.1061 61.0279 14.0365 60.6898 13.8906C60.3517 13.7448 60.0783 13.5194 59.8695 13.2145C59.6607 12.9096 59.5563 12.5268 59.5563 12.0661V4.53409Z" fill="#F2DC84"/>
</svg>
