<svg width="76" height="20" viewBox="0 0 76 20" fill="none" xmlns="http://www.w3.org/2000/svg">
<path d="M19.712 2.06137H11.3207V17.2218H19.712V2.06137Z" fill="#FF5F00"/>
<path d="M11.8535 9.64157C11.8522 8.18151 12.1813 6.74029 12.8159 5.427C13.4505 4.11372 14.3739 2.9628 15.5164 2.06137C14.1016 0.943388 12.4026 0.248131 10.6134 0.0550661C8.82426 -0.137999 7.01717 0.178911 5.39868 0.969588C3.7802 1.76027 2.41562 2.99281 1.46095 4.52632C0.506266 6.05983 0 7.83245 0 9.64157C0 11.4507 0.506266 13.2233 1.46095 14.7568C2.41562 16.2903 3.7802 17.5229 5.39868 18.3135C7.01717 19.1042 8.82426 19.4211 10.6134 19.2281C12.4026 19.035 14.1016 18.3397 15.5164 17.2218C14.374 16.3203 13.4505 15.1694 12.8159 13.8561C12.1813 12.5428 11.8522 11.1016 11.8535 9.64157Z" fill="#EB001B"/>
<path d="M31.0323 9.64157C31.0323 11.4507 30.5261 13.2233 29.5715 14.7568C28.6169 16.2903 27.2523 17.5228 25.6339 18.3135C24.0154 19.1042 22.2083 19.4211 20.4192 19.2281C18.6301 19.035 16.9311 18.3397 15.5164 17.2218C16.6578 16.3194 17.5805 15.1683 18.215 13.8552C18.8495 12.5422 19.1792 11.1014 19.1792 9.64157C19.1792 8.18174 18.8495 6.74097 18.215 5.42789C17.5805 4.11481 16.6578 2.96371 15.5164 2.06137C16.9311 0.943386 18.6301 0.248126 20.4192 0.0550631C22.2083 -0.138 24.0154 0.178924 25.6339 0.96961C27.2523 1.76029 28.6169 2.99283 29.5715 4.52635C30.5261 6.05986 31.0323 7.83247 31.0323 9.64157Z" fill="#F79E1B"/>
<path d="M30.1173 15.616V15.3057H30.2418V15.2424H29.9248V15.3057H30.0493V15.616H30.1173ZM30.7328 15.616V15.2418H30.6356L30.5239 15.4992L30.4121 15.2418H30.3148V15.616H30.3834V15.3338L30.4883 15.5771H30.5594L30.6642 15.3331V15.616H30.7328Z" fill="#F79E1B"/>
<path fill-rule="evenodd" clip-rule="evenodd" d="M46.6004 15.5193H43.2771L40.7851 5.73241C40.6668 5.28221 40.4156 4.8842 40.0462 4.69662C39.1242 4.22522 38.1083 3.85005 37 3.66084V3.28404H42.3535C43.0924 3.28404 43.6465 3.85005 43.7389 4.50741L45.0319 11.567L48.3536 3.28404H51.5845L46.6004 15.5193ZM53.4311 15.5193H50.2925L52.8769 3.28404H56.0155L53.4311 15.5193ZM60.0774 6.67173C60.1698 6.01274 60.7239 5.63595 61.3704 5.63595C62.3863 5.54134 63.493 5.73055 64.4166 6.20033L64.9707 3.56601C64.0472 3.18921 63.0312 3 62.1093 3C59.0631 3 56.8465 4.69477 56.8465 7.0469C56.8465 8.83627 58.4166 9.77582 59.5249 10.3418C60.7239 10.9062 61.1857 11.283 61.0933 11.8474C61.0933 12.694 60.1697 13.0707 59.2478 13.0707C58.1395 13.0707 57.0312 12.7886 56.0169 12.3172L55.4627 14.9531C56.571 15.4229 57.7701 15.6121 58.8784 15.6121C62.294 15.7051 64.4166 14.0119 64.4166 11.4706C64.4166 8.27026 60.0774 8.08268 60.0774 6.67173ZM75.3988 15.5193L72.9067 3.28404H70.23C69.6758 3.28404 69.1217 3.66084 68.9369 4.22522L64.3223 15.5193H67.5532L68.1981 13.7316H72.1679L72.5373 15.5193H75.3988ZM70.6922 6.57765L71.6141 11.1889H69.0297L70.6922 6.57765Z" fill="#172B85"/>
</svg>
