<svg width="101" height="35" viewBox="0 0 101 35" fill="none" xmlns="http://www.w3.org/2000/svg">
<path d="M33.2323 8.3518H23.7682V25.6482H33.2323V8.3518Z" fill="#FF5F00"/>
<path d="M24.3691 17C24.3676 15.3342 24.7388 13.6899 25.4545 12.1916C26.1702 10.6933 27.2118 9.38024 28.5003 8.35181C26.9047 7.0763 24.9884 6.28309 22.9704 6.06282C20.9525 5.84256 18.9144 6.20412 17.0889 7.1062C15.2635 8.00827 13.7245 9.41447 12.6477 11.164C11.571 12.9136 11 14.936 11 17C11 19.064 11.571 21.0864 12.6477 22.836C13.7245 24.5855 15.2635 25.9917 17.0889 26.8938C18.9144 27.7959 20.9525 28.1574 22.9704 27.9372C24.9884 27.7169 26.9047 26.9237 28.5003 25.6482C27.2118 24.6198 26.1703 23.3067 25.4545 21.8084C24.7388 20.31 24.3676 18.6658 24.3691 17Z" fill="#EB001B"/>
<path d="M46 17C46.0001 19.064 45.4291 21.0863 44.3525 22.8359C43.2758 24.5855 41.7368 25.9917 39.9114 26.8938C38.086 27.7959 36.0479 28.1574 34.03 27.9372C32.0121 27.7169 30.0958 26.9237 28.5003 25.6482C29.7876 24.6187 30.8283 23.3054 31.5439 21.8073C32.2596 20.3093 32.6314 18.6655 32.6314 17C32.6314 15.3345 32.2596 13.6907 31.5439 12.1926C30.8283 10.6946 29.7876 9.38128 28.5003 8.35181C30.0958 7.0763 32.0121 6.28309 34.03 6.06282C36.0479 5.84256 38.086 6.20413 39.9114 7.10622C41.7368 8.00831 43.2758 9.4145 44.3525 11.1641C45.4291 12.9137 46.0001 14.936 46 17Z" fill="#F79E1B"/>
<path d="M44.9681 23.8162V23.4621H45.1085V23.39H44.7509V23.4621H44.8914V23.8162H44.9681ZM45.6623 23.8162V23.3893H45.5527L45.4266 23.683L45.3005 23.3893H45.1908V23.8162H45.2682V23.4942L45.3864 23.7718H45.4667L45.5849 23.4935V23.8162H45.6623Z" fill="#F79E1B"/>
<path fill-rule="evenodd" clip-rule="evenodd" d="M61.7103 24.4661H58.0028L55.2227 13.1565C55.0907 12.6363 54.8105 12.1764 54.3984 11.9596C53.3698 11.4149 52.2364 10.9813 51 10.7627V10.3273H56.9725C57.7968 10.3273 58.415 10.9813 58.518 11.741L59.9605 19.8989L63.6662 10.3273H67.2707L61.7103 24.4661ZM69.3313 24.4661H65.8298L68.713 10.3273H72.2145L69.3313 24.4661ZM76.7457 14.243C76.8487 13.4815 77.4669 13.046 78.1882 13.046C79.3216 12.9367 80.5562 13.1554 81.5865 13.6982L82.2048 10.6541C81.1744 10.2187 80.041 10 79.0125 10C75.6141 10 73.1412 11.9584 73.1412 14.6765C73.1412 16.7443 74.8928 17.83 76.1293 18.484C77.4669 19.1362 77.9821 19.5716 77.8791 20.2238C77.8791 21.2021 76.8487 21.6375 75.8201 21.6375C74.5837 21.6375 73.3473 21.3114 72.2157 20.7667L71.5975 23.8127C72.8339 24.3556 74.1716 24.5742 75.408 24.5742C79.2185 24.6817 81.5865 22.7251 81.5865 19.7884C81.5865 16.0902 76.7457 15.8734 76.7457 14.243V14.243ZM93.8382 24.4661L91.0581 10.3273H88.0718C87.4536 10.3273 86.8354 10.7627 86.6293 11.4149L81.4811 24.4661H85.0856L85.805 22.4002H90.2338L90.6459 24.4661H93.8382ZM88.587 14.1348L89.6156 19.4635H86.7324L88.587 14.1348Z" fill="#172B85"/>
</svg>
